<svg width="187" height="186" viewBox="0 0 187 186" fill="none" xmlns="http://www.w3.org/2000/svg">
<path d="M102.956 0C105.529 0.478635 107.918 0.810443 110.215 1.46388C116.693 3.3064 123.278 4.8999 129.556 7.28778C140.556 11.4719 149.861 18.2868 158.436 26.3768C166.447 33.9336 172.97 42.3951 177.528 52.3572C181.27 60.5358 183.862 69.1088 185.107 78.0193C185.841 83.2679 186.618 88.5913 186.505 93.8624C186.092 113.166 180.623 130.996 169.459 146.844C166.139 151.556 162.329 156.023 158.202 160.048C145.98 171.966 131.422 179.888 114.843 183.991C111.564 184.802 108.159 185.107 104.72 185.823C97.2253 186 89.8221 186 82.1009 185.823C73.9029 184.84 66.3855 182.712 59.0073 179.845C41.5146 173.046 27.4988 161.865 16.785 146.576C9.02297 135.5 3.67448 123.334 1.41033 109.913C0.973145 107.322 0.471768 104.741 1.58478e-09 102.155C-4.80574e-07 95.8811 -4.76837e-07 89.6068 0.177631 83.0144C1.0403 78.7455 1.54104 74.7523 2.44232 70.8514C6.31716 54.0806 14.4938 39.6053 26.4762 27.332C34.2023 19.4184 43.2001 13.2082 53.2813 8.55663C60.3826 5.27998 67.689 2.73946 75.4117 1.43298C78.0833 0.981013 80.7464 0.479099 83.4135 0C89.8523 0 96.2912 0 102.956 0ZM149.104 22.0093C149.634 22.2091 150.163 22.4088 150.692 22.6086C150.739 22.5036 150.786 22.3986 150.833 22.2936C150.327 21.9883 149.82 21.6831 149.096 21.1191C141.612 17.0016 133.845 13.7985 125.306 12.4191C116.866 11.0558 108.468 11.0969 100.164 12.6868C92.4906 14.156 85.2958 17.1482 78.5355 21.1845C67.2299 27.9346 58.6166 37.2252 52.5887 48.8143C48.461 56.7503 45.6658 65.2188 45.3551 74.2704C45.1674 79.7377 44.7415 85.3087 45.526 90.6719C46.8032 99.4043 49.7219 107.704 54.333 115.378C59.0462 123.221 64.7977 130.089 72.1942 135.482C85.972 145.527 101.251 150.599 118.473 149.429C124.348 149.029 130.059 148.015 135.595 146.143C144.339 143.187 152.228 138.751 159.285 132.686C165.76 127.121 170.721 120.485 174.85 113.129C178.625 106.403 180.951 99.147 182.163 91.5775C182.86 87.2209 182.996 82.7745 183.385 78.3684C182.714 80.2671 182.354 82.1993 182.279 84.1425C182.002 91.3248 180.198 98.1906 177.334 104.675C172.758 115.036 166.04 123.81 156.884 130.705C146.98 138.163 135.85 142.404 123.622 143.516C114.875 144.311 106.14 143.428 97.7603 140.614C84.4835 136.156 73.4128 128.37 65.3385 116.946C54.0015 100.906 50.2875 83.0153 54.5569 63.78C57.7781 49.2667 65.3818 37.2189 77.0001 27.9389C87.3459 19.6754 99.3258 15.0523 112.521 14.0412C121.194 13.3766 129.818 14.1768 138.069 17.2383C141.746 18.6026 145.328 20.2213 149.104 22.0093ZM112.713 126.69C118.599 127.822 124.422 129.018 130.542 128.261C135.732 127.62 140.76 126.703 145.678 124.861C158.812 119.94 168.563 111.139 174.924 98.8407C180.518 88.0235 182.208 76.445 179.889 64.3225C176.909 48.7481 168.769 36.607 155.616 27.9858C144.593 20.7606 132.415 18.0189 119.189 19.6908C108.596 21.03 99.2794 25.1774 91.302 31.9958C81.9305 40.0057 75.6893 50.0349 73.1372 62.3362C71.2079 71.6354 71.5079 80.6891 74.2339 89.7288C77.1259 99.3194 82.4344 107.321 89.7798 114.115C96.3029 120.148 103.917 124.037 112.713 126.69ZM56.9172 22.3965C57.2006 22.2579 57.521 22.1657 57.762 21.9739C63.871 17.1125 70.7543 13.6494 78.0147 10.9173C88.8032 6.85745 100.032 5.78316 111.462 6.28053C113.222 6.35714 114.974 6.64049 116.729 6.82823C90.8772 2.06661 74.6568 8.56392 63.2804 14.5162C46.3987 23.349 33.8901 36.6144 26.059 54.0175C12.0318 85.1906 17.1466 125.321 48.5658 151.786C72.1683 171.667 109.403 179.517 143.692 159.699C154.687 153.345 163.69 144.821 170.747 134.191C177.759 123.628 182.221 112.206 183.631 99.6282C183.203 100.542 182.944 101.522 182.748 102.515C180.081 116.063 173.821 127.849 164.761 138.118C157.398 146.463 148.573 152.922 138.4 157.619C128.639 162.126 118.391 164.426 107.757 164.689C102.245 164.826 96.6514 164.173 91.1886 163.294C75.2002 160.722 61.5757 153.213 50.0209 142.103C45.8928 138.134 42.3251 133.446 39.1367 128.663C30.6211 115.889 26.5552 101.598 26.1027 86.32C25.9837 82.3016 26.572 78.2477 27.0167 74.2302C27.9423 65.8679 30.4446 57.9429 34.1412 50.4096C39.5221 39.4439 46.9322 30.0932 56.9172 22.3965Z" fill="#389B9A"/>
</svg>
