<svg width="556" height="461" viewBox="0 0 556 461" fill="none" xmlns="http://www.w3.org/2000/svg">
<path d="M469.461 388.306C469.461 428.246 381.158 460.624 272.23 460.624C163.303 460.624 75 428.246 75 388.306C75 348.366 252.057 371.87 360.984 371.87C469.912 371.87 469.461 348.366 469.461 388.306Z" fill="#E1EFEF"/>
<path d="M229.875 396.997C229.875 419.27 180.655 437.325 119.938 437.325C59.2208 437.325 10 419.27 10 396.997C10 374.724 108.693 387.831 169.41 387.831C230.127 387.831 229.875 374.724 229.875 396.997Z" fill="#A5D0D0"/>
<g clip-path="url(#clip0_1206_7458)">
<path d="M140.06 133.991C140.06 133.991 136.812 133.911 132.584 131.291C132.584 131.291 128.437 128.511 119.664 138.611C119.664 138.611 119.583 133.761 116.662 131.851C116.662 131.851 108.216 133.361 114.221 140.681C114.221 140.681 113.087 144.971 109.513 143.221C109.513 143.221 99.2796 124.691 114.793 116.261C114.793 116.261 121.942 111.731 128.846 118.411C128.846 118.411 137.619 120.321 133.472 114.431C133.472 114.431 134.524 113.321 137.619 117.691C137.619 117.691 140.703 118.641 139.896 115.461C139.896 115.461 142.654 117.371 145.748 121.741C145.748 121.741 148.751 127.631 140.06 133.991Z" stroke="black" stroke-miterlimit="10"/>
<path d="M140.06 133.99C140.06 133.99 138.609 160.54 122.228 162.55C122.228 162.55 111.402 159.22 111.035 154.75C111.035 154.75 108.808 147.19 109.513 143.21" stroke="black" stroke-miterlimit="10"/>
<path d="M123.545 162.34C123.545 162.34 123.719 166.91 121.207 169.37C121.207 169.37 110.657 172.59 106.857 163.02C106.857 163.02 111.617 158.7 110.228 151.76" stroke="black" stroke-miterlimit="10"/>
<path d="M123.443 164.34C123.443 164.34 134.208 163.91 142.991 170.36C142.991 170.36 145.626 177.03 152.877 206.06C152.877 206.06 167.369 228.43 168.247 232.51C168.247 232.51 164.948 236.6 157.044 237.89L140.356 212.3C140.356 212.3 137.496 203.7 136.618 197.03C136.618 197.03 135.515 188 135.739 239.18C135.739 239.18 133.758 236.81 109.166 246.49C109.166 246.49 99.2794 246.27 95.1126 241.97C95.1126 241.97 89.6181 202.83 89.6181 197.45C89.6181 197.45 74.9013 205.62 73.1447 205.62C73.1447 205.62 92.4675 231.86 92.6921 232.93C92.6921 232.93 87.6367 236.16 86.7584 239.81C86.7584 239.81 54.0363 207.34 52.9333 201.32C52.9333 201.32 64.7905 187.13 93.1211 165.62C93.1211 165.62 101.026 162.77 106.847 163.01" stroke="black" stroke-miterlimit="10"/>
<path d="M158.279 237.63C158.279 237.63 160.291 238.25 155.512 244.52C155.512 244.52 157.902 248.95 159.913 242.92C159.913 242.92 163.682 244.03 164.56 248.09C164.56 248.09 171.097 249.69 171.975 250.68C171.975 250.68 172.976 239.72 166.062 234.43" stroke="black" stroke-miterlimit="10"/>
<path d="M128.968 240.15C128.968 240.15 179.512 246.8 180.646 261.08C180.646 261.08 180.574 319.03 176.673 338.41C176.673 338.41 169.902 337.14 160.526 338.66L160.781 277.22C160.781 277.22 160.444 273.57 151.294 274.44" stroke="black" stroke-miterlimit="10"/>
<path d="M91.1602 234.111C91.1602 234.111 93.8257 233.911 94.2342 235.321" stroke="black" stroke-miterlimit="10"/>
<path d="M87.2998 238.852C87.2998 238.852 90.8233 246.092 91.9671 250.322C91.9671 250.322 94.0199 251.552 94.2446 247.982" stroke="black" stroke-miterlimit="10"/>
<path d="M171.995 249.691C171.995 249.691 197.119 250.151 197.282 262.451L201.858 331.021C201.858 331.021 191.808 331.551 188.009 334.211C188.009 334.211 182.034 294.061 180.411 276.251" stroke="black" stroke-miterlimit="10"/>
<path d="M163.161 337.99C163.161 337.99 159.127 346.77 160.598 354L198.916 353.61C198.916 353.61 201.97 341.75 186.896 343.48C186.896 343.48 176.744 344.25 174.089 337.98" stroke="black" stroke-miterlimit="10"/>
<path d="M190.358 333.16C190.358 333.16 186.416 338.08 187.999 343.19" stroke="black" stroke-miterlimit="10"/>
<path d="M198.334 347.44L224.837 347.25C224.837 347.25 225.817 338.86 216.656 338.18C216.656 338.18 207.301 337.02 203.849 336.64C203.849 336.64 199.611 332.78 199.018 331.24" stroke="black" stroke-miterlimit="10"/>
<path d="M95.1125 241.971C95.1125 241.971 93.3456 249.701 96.0929 252.741" stroke="black" stroke-miterlimit="10"/>
<path d="M100.352 264.74C100.352 264.74 103.722 272.22 121.666 274.65" stroke="black" stroke-miterlimit="10"/>
<path d="M425.551 131.661C425.551 131.661 426.797 121.161 432.404 120.311C432.404 120.311 435.274 120.311 435.519 122.991C435.519 122.991 437.633 129.461 444.996 131.291C444.996 131.291 448.734 132.511 450.235 136.051C450.235 136.051 457.834 135.201 451.104 143.981C451.104 143.981 450.501 145.631 449.204 144.211C449.235 143.781 449.143 144.061 449.112 143.981C449.112 143.981 446.497 151.061 439.267 152.521C439.267 152.521 431.291 152.761 430.668 152.521C430.668 152.521 423.692 148.371 425.561 131.651L425.551 131.661Z" stroke="black" stroke-miterlimit="10"/>
<path d="M451.185 143.892C451.185 143.892 450.266 142.242 449.153 143.872" stroke="black" stroke-miterlimit="10"/>
<path d="M432.924 152.601L432.843 166.201C432.843 166.201 439.41 173.611 446.64 164.901C446.64 164.901 446.743 146.821 446.732 148.211C446.722 149.601 452.309 152.151 452.309 152.151C463.073 153.931 465.8 146.811 465.8 146.811C472.551 131.441 457.364 128.391 457.364 128.391C453.218 107.941 432.138 115.201 432.138 115.201C420.924 120.381 425.53 131.661 425.53 131.661" stroke="black" stroke-miterlimit="10"/>
<path d="M432.618 160.88C432.618 160.88 419.975 159.74 414.429 170.23C414.429 170.23 399.6 200.04 398.824 202.44C398.824 202.44 382.187 182.23 380.635 181.73C380.635 181.73 372.771 186.28 372.117 187.54C372.117 187.54 389.918 217.47 401.53 222.78C401.53 222.78 409.782 212.8 414.296 204.34L411.988 193.78C411.988 193.78 411.345 190.75 414.214 190.97L433.864 191.14C433.864 191.14 435.294 191.2 435.692 193.5L437.674 204.29" stroke="black" stroke-miterlimit="10"/>
<path d="M414.296 204.33L418.739 220.14C418.739 220.14 419.117 221.2 421.792 221.01L439.839 221.26C439.839 221.26 441.493 220.82 441.748 219.33L440.411 214.91" stroke="black" stroke-miterlimit="10"/>
<path d="M446.814 160.9C446.814 160.9 456.261 160.75 456.731 161.29C456.731 161.29 464.288 164.53 464.523 165.22C464.523 165.22 484.438 202.36 488.973 216.51C488.973 216.51 488.115 219.89 483.795 220.73C483.795 220.73 470.212 221.15 464.82 219.46C464.82 219.46 449.939 217.56 449.071 216.71C449.071 216.71 449.5 208.69 448.857 207.84C448.857 207.84 469.191 209.34 470.61 208.81C470.61 208.81 459.458 190.4 458.692 187.3C458.692 187.3 455.74 197.79 455.74 208.28" stroke="black" stroke-miterlimit="10"/>
<path d="M453.228 160.83C453.228 160.83 451.481 163.68 451.553 165.45C451.624 167.22 448.908 172.73 448.908 172.73C446.028 175.55 443.342 184.38 443.239 186.96C443.25 191.59 438.705 199.34 436.724 198.51" stroke="black" stroke-miterlimit="10"/>
<path d="M425.377 161.701C425.02 161.771 427.134 166.131 426.296 167.731C425.459 169.331 429.442 177.561 429.176 178.971C429.044 180.211 429.738 183.041 430.494 185.661C430.984 189.631 432.23 191.131 432.23 191.131" stroke="black" stroke-miterlimit="10"/>
<path d="M448.857 208.491L445.977 208.451C445.977 208.451 445.783 211.891 446.171 212.561C446.171 212.561 446.079 215.801 445.65 216.291C445.221 216.781 449.081 216.421 449.081 216.421" stroke="black" stroke-miterlimit="10"/>
<path d="M372.811 186.631C372.811 186.631 371.269 183.871 371.32 183.411C371.32 183.411 373.118 182.201 374.303 182.451C374.303 182.451 376.509 182.051 378.459 179.941C378.459 179.941 379.378 179.441 379.95 181.951" stroke="black" stroke-miterlimit="10"/>
<path d="M422.17 162.91C422.17 162.91 417.452 173.23 417.728 174.05C418.003 174.87 421.425 176.77 422.906 177.85C422.906 177.85 420.414 181.56 420.506 182.65C420.506 182.65 426.051 190.53 427.073 190.89" stroke="black" stroke-miterlimit="10"/>
<path d="M454.443 160.92C454.443 160.92 458.692 174.05 458.14 174.59C458.14 174.59 452.962 177.13 452.962 178.03C452.962 178.03 452.962 181.11 453.983 182.38C453.983 182.38 444.271 195.96 438.082 202.48" stroke="black" stroke-miterlimit="10"/>
<path d="M364.692 267.181L365.662 235.261C365.662 235.261 363.916 225.761 378.275 226.141C378.275 226.141 421.547 224.811 457.252 236.211" stroke="black" stroke-miterlimit="10"/>
<path d="M456.149 218.271C456.149 218.271 459.08 227.561 456.475 242.391" stroke="black" stroke-miterlimit="10"/>
<path d="M415.93 227.821C415.93 227.821 419.658 221.561 419.127 220.691" stroke="black" stroke-miterlimit="10"/>
<path d="M364.682 266.82C364.876 269.81 360.045 329.91 360.045 329.91C339.763 334.1 342.02 336.09 342.02 336.09C344.052 336.31 366.806 339.84 366.806 339.84L367.93 333.88C367.256 331.01 384.832 266.74 384.832 266.74" stroke="black" stroke-miterlimit="10"/>
<path d="M390.858 266.82C390.858 266.82 397.557 333.88 399.916 347.19L402.449 351.98L386.139 358.54C386.139 358.54 376.192 358.72 376.539 358.36C376.886 358 382.606 355.58 383.79 354.99C384.975 354.4 391.236 347.12 391.215 347.18C391.195 347.24 376.723 296.62 376.897 296.62" stroke="black" stroke-miterlimit="10"/>
<path d="M353.785 331.621C353.785 331.621 365.591 338.191 367.95 331.861" stroke="black" stroke-miterlimit="10"/>
<path d="M384.005 354.802C384.005 354.802 399.232 351.092 399.763 346.092" stroke="black" stroke-miterlimit="10"/>
<path d="M445.834 215.49C442.678 216.34 441.207 214.69 438.347 214.11C438.347 214.11 434.865 212.58 431.066 214.26C431.066 214.26 430.678 213.05 434.181 212.09C434.181 212.09 436.826 211.67 437.081 211.76C437.336 211.85 436.826 211.68 436.826 211.68C436.826 211.68 434.344 210.68 430.167 213.44C430.167 213.44 426.582 214.28 431.188 211.01C431.188 211.01 435.457 208.67 435.804 208.42C436.152 208.17 435.467 208.67 435.467 208.67C435.57 208.35 428.584 211.65 428.461 211.72C428.349 211.79 424.999 212.58 427.348 210.09C427.501 210.09 433.343 207.04 434.181 207.04C434.181 207.04 435.192 206.73 434.559 206.32C432.955 205.28 429.983 207.25 427.941 206.43C430.79 204.26 434.313 202.98 437.786 204.34C437.745 203.74 438.286 201.8 437.959 201.17C441.258 204.12 442.045 208.28 445.691 209.47" stroke="black" stroke-miterlimit="10"/>
<path d="M378.071 179.88C378.071 179.88 376.856 173.01 375.344 172.3C375.344 172.3 369.789 168.2 369.063 167.15C369.063 167.15 368.093 167.82 369.401 170.25C369.401 170.25 372.669 172.54 371.882 173.73C371.882 173.73 367.787 174.4 365.111 172.3" stroke="black" stroke-miterlimit="10"/>
<path d="M371.3 178.111C371.3 178.111 369.983 175.961 366.97 177.541C366.97 177.541 362.098 170.291 361.516 168.621C361.516 168.621 361.077 168.241 360.056 168.911C360.056 168.911 359.913 167.721 358.738 167.811C358.738 167.811 357.523 166.471 357.37 168.291C357.37 168.291 360.291 175.211 361.169 175.831C361.169 175.831 364.58 177.551 364.58 178.551C364.58 178.551 365.55 180.171 367.991 180.651C367.991 180.651 372.526 181.751 372.76 182.461" stroke="black" stroke-miterlimit="10"/>
<path d="M363.794 177.07C363.794 177.07 360.096 169.3 360.045 168.91" stroke="black" stroke-miterlimit="10"/>
<path d="M360.822 175.011C360.822 175.011 358.728 168.431 358.728 167.811" stroke="black" stroke-miterlimit="10"/>
<path d="M453.514 254.121C453.514 254.121 448.734 263.591 430.331 264.271" stroke="black" stroke-miterlimit="10"/>
<path d="M364.753 263.361C369.533 268.611 397.956 266.561 397.956 266.561" stroke="black" stroke-miterlimit="10"/>
<path d="M146.759 274.551L145.871 306.921" stroke="black" stroke-miterlimit="10"/>
<path d="M133.942 275.461L135.811 309.291" stroke="black" stroke-miterlimit="10"/>
<path d="M146.402 291.34C146.402 291.34 152.417 291.75 160.066 286.08" stroke="black" stroke-miterlimit="10"/>
<path d="M72.7566 264.95C72.7566 264.95 74.309 271.19 73.7472 275.04C73.7472 275.04 131.123 273.94 133.932 275.45C133.932 275.45 134.218 271.46 133.513 262.92C133.513 262.92 77.2401 266.14 72.7566 264.94V264.95Z" stroke="black" stroke-miterlimit="10"/>
<path d="M146.759 274.551L147.74 245.481C147.74 245.481 136.179 247.471 70.8161 256.771C70.8161 256.771 44.3749 197.141 33.9475 193.321C23.5202 189.491 17.5559 194.051 13.0928 197.151L4.15654 189.311C4.15654 189.311 -1.06224 189.491 0.990547 194.961C0.990547 194.961 35.8165 317.131 37.1135 318.951L19.241 348.311L26.3185 348.671C26.3185 348.671 50.7171 327.521 51.2686 326.061L135.811 309.281L138.609 360.521L144.38 360.881L145.871 306.911L159.28 304.721L160.22 282.831C160.22 282.831 161.721 273.161 146.759 274.541V274.551Z" stroke="black" stroke-miterlimit="10"/>
<path d="M13.0928 197.15C13.0928 197.15 33.5492 289.99 49.2464 301.83C49.2464 301.83 112.924 305 135.178 295.28" stroke="black" stroke-miterlimit="10"/>
<path d="M72.7564 264.951L32.7117 267.631" stroke="black" stroke-miterlimit="10"/>
<path d="M70.8162 256.771L29.1782 258.392" stroke="black" stroke-miterlimit="10"/>
<path d="M409.24 263.99L410.129 296.35" stroke="black" stroke-miterlimit="10"/>
<path d="M422.058 264.9L420.189 298.72" stroke="black" stroke-miterlimit="10"/>
<path d="M409.598 280.78C409.598 280.78 403.583 281.19 395.933 275.52" stroke="black" stroke-miterlimit="10"/>
<path d="M483.243 254.389C483.243 254.389 481.691 260.629 482.252 264.479C482.252 264.479 424.876 263.379 422.068 264.889C422.068 264.889 421.782 260.899 422.487 252.359C422.487 252.359 478.76 255.579 483.243 254.379V254.389Z" stroke="black" stroke-miterlimit="10"/>
<path d="M409.241 263.99L408.26 234.92C408.26 234.92 419.821 236.91 485.184 246.21C485.184 246.21 511.625 186.58 522.052 182.76C532.48 178.93 538.444 183.49 542.907 186.59L551.843 178.75C551.843 178.75 557.062 178.93 555.009 184.4C555.009 184.4 520.183 306.57 518.886 308.39L536.759 337.75L529.681 338.11C529.681 338.11 505.283 316.96 504.731 315.5L420.189 298.72L417.39 349.96L411.62 350.32L410.129 296.35L396.72 294.16L395.78 272.27C395.78 272.27 394.279 262.6 409.241 263.98V263.99Z" stroke="black" stroke-miterlimit="10"/>
<path d="M542.907 186.58C542.907 186.58 522.451 279.42 506.753 291.26C506.753 291.26 443.076 294.43 420.822 284.71" stroke="black" stroke-miterlimit="10"/>
<path d="M483.243 254.391L523.288 257.071" stroke="black" stroke-miterlimit="10"/>
<path d="M485.173 246.211L526.822 247.831" stroke="black" stroke-miterlimit="10"/>
<path d="M46.438 86.3006C66.0468 91.1506 86.687 91.5906 106.5 87.6106C116.131 85.6806 125.639 82.7506 134.555 78.6806C142.102 75.2406 149.394 70.4906 154.736 64.1606C159.576 58.4206 162.579 51.1906 161.394 43.6606C160.271 36.5406 155.154 30.5206 148.781 27.1806C142.409 23.8406 134.596 23.1406 127.794 26.0306C120.992 28.9206 115.559 35.0606 112.985 41.9706C106.602 59.1706 119.971 77.0306 137.466 80.2706V78.8206C121.881 82.8906 105.857 85.1506 89.7305 85.4806C82.9185 85.6206 75.3507 86.1206 68.7532 84.1606C66.1182 83.3806 63.2178 82.0606 61.788 79.6206C59.9803 76.5106 61.4407 73.1006 63.8408 70.7706C66.3736 68.3106 69.7336 66.6706 72.9303 65.2006C76.3618 63.6206 79.9363 62.3506 83.5925 61.3806C90.9969 59.4206 98.6361 58.8206 106.275 59.4006C120.696 60.5106 134.933 65.2506 149.496 63.3206C159.873 61.9406 171.689 56.8606 175.478 46.4806C178.378 38.5106 175.876 27.9306 168.554 23.0106C160.71 17.7406 151.181 21.9906 146.667 29.2706C141.112 38.2506 141.316 48.7706 142.838 58.7806C144.706 71.0406 147.699 86.5506 136.638 95.6706C131.522 99.8906 124.454 101.931 117.898 102.651C112.658 103.221 107.215 102.551 102.272 100.761C97.7271 99.1206 92.9271 96.1806 91.1603 91.5306C89.1075 86.1506 91.8649 80.6806 96.2054 77.3006C101.363 73.2806 108.032 71.4706 114.272 69.8006C121.942 67.7606 129.765 66.2906 137.66 65.3906C145.554 64.4906 153.112 64.2006 160.843 64.4306C167.798 64.6306 174.63 65.5706 181.534 66.2206C190.624 67.0806 202.246 67.6606 209.793 61.6306C213.541 58.6406 215.574 53.9106 215.247 49.1906C214.828 43.0406 211.009 37.6406 206.974 33.1506C202.44 28.1106 197.242 23.5106 191.992 19.2006C186.743 14.8906 181.442 11.1206 175.59 7.94056C164.908 2.13056 152.887 -1.14944 140.632 0.370558C130.122 1.68056 119.705 6.32056 113.169 14.7106C105.56 24.4706 104.989 37.5306 108.849 48.8706C113.016 61.0906 122.105 70.7206 132.461 78.3306C137.864 82.3006 143.644 85.7606 149.517 89.0406V87.7406C130.919 95.7606 110.636 99.5506 90.333 98.8606L90.7211 100.261C105.366 89.6106 125.179 86.4806 142.439 92.3706C150.773 95.2106 160.097 100.991 169.095 97.1706C175.6 94.4106 179.155 87.2106 179.114 80.5006C179.032 65.5906 163.856 54.0906 150.824 49.3506C137.792 44.6106 123.872 44.7206 110.973 48.5006C96.4301 52.7606 83.4189 62.0206 76.229 75.2806C76.0554 75.5906 76.1167 75.9306 76.3516 76.1906C90.0471 91.6206 112.74 97.8406 132.87 93.1806C142.337 90.9906 154.48 85.8606 158.708 76.6006C163.764 65.5106 151.008 57.3306 142.072 53.8306C129.806 49.0306 115.712 49.4206 103.773 54.9606C103.242 55.2106 103.303 55.9906 103.773 56.2606C126.987 69.3906 151.723 79.8306 177.306 87.6506C202.93 95.4806 229.351 100.681 256.017 103.621C283.101 106.611 310.441 107.261 337.659 105.921C364.743 104.591 391.715 101.291 418.34 96.2606C442.228 91.7506 470.886 85.9006 483.08 62.6806C488.054 53.2006 489.637 41.6706 484.734 31.8506C479.975 22.3006 470.202 16.5606 460.081 13.6906C449.01 10.5506 436.642 10.0606 425.336 12.2006C414.031 14.3406 403.552 20.0306 399.007 30.6206C394.994 39.9606 396.475 51.2306 405.472 57.1906C410.568 60.5606 416.952 61.9306 422.967 62.7006C429.299 63.5106 435.958 63.3606 441.912 60.8906C450.726 57.2406 457.67 46.3406 452.778 37.1906C447.886 28.0406 433.639 26.5506 424.775 30.1606C420.659 31.8406 417.074 34.8306 415.624 39.0606C414.357 42.7406 415.828 46.3806 418.473 49.1006C421.118 51.8206 424.846 53.8206 428.635 53.7006C432.618 53.5806 435.437 50.3506 435.988 46.5906C436.509 43.0306 433.925 39.4906 430.279 42.0006C429.483 42.5506 430.239 43.8506 431.056 43.3006C434.722 40.7806 434.896 46.1806 433.884 48.3406C432.955 50.3206 431.525 51.8906 429.227 52.1706C425.53 52.6206 421.619 50.3106 419.249 47.7106C415.992 44.1306 416.002 39.7006 419.066 35.9606C422.129 32.2206 426.909 30.5206 431.515 30.0106C436.581 29.4506 442.116 30.3606 446.508 32.9706C451.573 35.9906 453.718 41.3806 452.36 46.9806C449.48 58.9106 436.57 62.4006 425.49 61.4806C414.409 60.5606 400.897 56.7706 398.67 44.4906C396.781 34.0806 402.878 23.8606 411.845 18.6206C421.69 12.8706 433.966 11.9406 445.17 12.7106C455.127 13.3906 465.483 15.8206 473.705 21.5806C482.498 27.7506 487.114 37.6206 486.042 48.1706C484.969 58.7406 478.964 68.7206 470.763 75.5206C461.429 83.2606 449.694 87.5606 438 90.5606C426.307 93.5606 414.94 95.5206 403.328 97.4206C355.49 105.261 306.509 107.491 258.233 102.391C210.355 97.3306 163.079 84.8306 120.124 63.3006C114.864 60.6606 109.676 57.8906 104.56 55.0006V56.3006C114.681 51.6106 126.415 50.8006 137.169 53.8106C145.932 56.2706 161.874 63.8306 157.677 75.2006C155.747 80.4306 150.62 84.0906 145.861 86.7106C141.755 88.9706 137.333 90.6306 132.768 91.7206C123.596 93.9006 113.874 93.7206 104.743 91.4106C94.2241 88.7506 84.5934 83.2206 77.4443 75.1806L77.5669 76.0906C90.0879 53.0106 120.185 42.6906 145.381 49.2806C158.872 52.8006 174.109 62.5606 177.173 76.8006C178.736 84.0606 175.641 93.0706 168.165 96.0006C159.158 99.5306 149.598 93.0106 141.244 90.4506C123.995 85.1806 104.457 88.4806 89.9654 99.0206C89.373 99.4506 89.5466 100.391 90.3534 100.421C110.943 101.121 131.46 97.2206 150.313 89.0906C150.855 88.8605 150.773 88.0506 150.313 87.7906C138.405 81.1406 126.528 73.5506 118.122 62.7406C109.717 51.9306 105.571 38.3706 109.349 25.5406C112.72 14.0906 122.667 6.34056 134.095 3.22056C146.208 -0.089442 158.78 1.75056 170.055 6.89056C182.464 12.5506 193.054 21.4806 202.665 30.8906C207.597 35.7106 213.061 41.7806 213.705 48.9006C214.195 54.3706 211.386 59.3806 206.535 62.0306C197.548 66.9506 185.609 65.3106 175.866 64.1106C160.965 62.2906 145.83 62.5406 130.991 64.8106C123.474 65.9606 116.039 67.6306 108.778 69.8306C103.6 71.3906 98.3195 73.4306 94.2241 77.0106C90.6496 80.1306 88.413 84.6506 89.0462 89.3906C89.5875 93.4206 92.202 96.7006 95.511 99.0206C103.763 104.811 114.854 105.341 124.403 102.991C130.143 101.581 135.852 99.0806 139.876 94.7106C143.9 90.3406 145.534 85.2306 146.034 79.7206C147.117 67.8606 142.357 56.3206 143.471 44.5106C144.339 35.3406 148.924 22.8006 160.036 22.2206C170.821 21.6606 176.326 33.7306 174.865 42.7806C172.925 54.7906 159.709 60.6406 148.659 61.9606C134.105 63.6906 119.869 58.8506 105.448 57.8806C98.3501 57.4006 91.2113 57.9806 84.3074 59.6806C77.4035 61.3806 70.7549 63.8406 65.1991 67.7506C61.3386 70.4706 57.8662 74.9706 60.1335 79.7806C62.1148 83.9806 67.3744 85.7006 71.6843 86.4006C78.4963 87.5206 85.7679 87.1706 92.6513 86.9406C100.25 86.6806 107.828 85.9906 115.344 84.8906C122.861 83.7906 130.449 82.2406 137.864 80.3106C138.558 80.1306 138.63 79.0006 137.864 78.8606C122.861 76.0806 110.166 61.8106 113.302 46.4106C114.762 39.2706 119.225 32.6406 125.629 28.8406C132.032 25.0406 139.886 24.7806 146.698 27.8806C153.091 30.7906 158.371 36.3806 159.75 43.2706C161.292 50.9206 157.922 58.4106 152.826 64.0806C141.765 76.3806 124.209 82.2606 108.349 85.7306C88.1168 90.1506 66.9251 89.8706 46.8363 84.9006C45.8763 84.6606 45.4678 86.1106 46.4278 86.3506L46.438 86.3006Z" fill="#020202"/>
</g>
<defs>
<clipPath id="clip0_1206_7458">
<rect width="556" height="361.42" fill="white"/>
</clipPath>
</defs>
</svg>
