<svg width="23" height="23" viewBox="0 0 23 23" fill="none" xmlns="http://www.w3.org/2000/svg">
<path d="M8.80591 2.70022C7.05431 2.70022 5.37444 3.39604 4.13587 4.63461C2.8973 5.87319 2.20148 7.55305 2.20148 9.30466C2.20148 11.0563 2.8973 12.7361 4.13587 13.9747C5.37444 15.2133 7.05431 15.9091 8.80591 15.9091C10.5575 15.9091 12.2374 15.2133 13.476 13.9747C14.7145 12.7361 15.4103 11.0563 15.4103 9.30466C15.4103 7.55305 14.7145 5.87319 13.476 4.63461C12.2374 3.39604 10.5575 2.70022 8.80591 2.70022ZM5.43944e-08 9.30466C0.000200694 7.90326 0.334865 6.52215 0.976179 5.27611C1.61749 4.03006 2.54694 2.95507 3.68726 2.14048C4.82759 1.32588 6.14586 0.795207 7.53253 0.592557C8.9192 0.389907 10.3342 0.521135 11.66 0.975334C12.9857 1.42953 14.1839 2.19358 15.155 3.20399C16.1261 4.2144 16.842 5.44198 17.2432 6.78471C17.6444 8.12744 17.7194 9.54654 17.4619 10.9241C17.2044 12.3016 16.6218 13.5978 15.7626 14.7049L21.6923 20.6346C21.8928 20.8422 22.0037 21.1202 22.0012 21.4088C21.9987 21.6974 21.8829 21.9735 21.6789 22.1776C21.4748 22.3817 21.1987 22.4974 20.9101 22.5C20.6215 22.5025 20.3434 22.3915 20.1358 22.191L14.2061 16.2613C12.9045 17.2719 11.3453 17.897 9.70606 18.0654C8.06678 18.2339 6.41312 17.939 4.93312 17.2142C3.45313 16.4895 2.2062 15.364 1.33412 13.9657C0.462045 12.5675 -0.000183075 10.9526 5.43944e-08 9.30466Z" fill="#323131"/>
</svg>
